<svg width="112" height="68" viewBox="0 0 112 68" fill="none" xmlns="http://www.w3.org/2000/svg">
<path d="M58.4105 52.1071C54.4356 52.1071 53.7871 51.1294 53.7871 46.9629V18.8161L52.6783 17.8417L43.1023 21.6822L43.6802 23.1841C47.4569 21.6217 47.5207 22.5323 47.5207 26.8801V46.9428C47.5207 50.8404 46.9529 51.9458 43.6298 52.0735C40.3168 51.9458 39.7994 50.8404 39.7994 46.9428V0.910564L38.8351 0L30.4048 4.10258L30.3577 3.51794L30.1629 1.56241H0V3.12481C6.04803 3.12481 6.90483 4.29746 6.90483 8.27236V46.9629C6.90483 50.9345 6.05811 52.1071 0 52.1071V53.6695H21.7561V52.1071C15.1772 52.1071 14.2633 50.9345 14.2633 46.9629V29.3094H17.5359C21.5041 29.3094 22.6801 30.2401 22.6801 36.9299H24.2425V19.0177H22.6801C22.6801 25.7377 21.5075 26.7054 17.5359 26.7054H14.2633V7.55332C14.2633 5.59779 15.3082 4.49234 17.3276 4.49234H22.6062C27.2296 4.49234 28.7281 5.92371 29.511 14.9084L31.2683 14.7841L30.5425 5.79939C33.4826 4.48898 33.4926 5.52387 33.4926 9.31396V46.9629C33.4926 51.1294 32.8408 52.1071 28.8693 52.1071V53.6695H58.4105V52.1071Z" fill="black"/>
<path d="M50.1379 11.5954C52.5471 11.5954 54.3077 9.91541 54.3077 7.62052C54.3077 5.26851 52.5471 3.5885 50.1379 3.5885C47.6616 3.5885 45.9043 5.26851 45.9043 7.62052C45.9043 9.90197 47.6616 11.5954 50.1379 11.5954Z" fill="black"/>
<path d="M102.181 17.9761C98.5325 17.9761 95.5353 20.3886 92.9952 24.555H92.7364V18.8161L91.6948 17.8417L81.9239 21.6889L81.9844 21.8401C80.3951 19.3839 78.1506 17.966 75.214 17.966C71.5683 17.966 68.5712 20.3785 66.031 24.5449H65.769V18.8161L64.7273 17.8417L54.9598 21.6889L55.5444 23.1841C59.4521 21.6217 59.4521 22.5323 59.4521 26.8801V61.29C59.4521 65.5237 58.8675 66.4376 54.8926 66.4376V68H70.3957V66.4376C66.4208 66.4376 65.769 65.5237 65.769 61.29V49.7618H65.9C66.6552 51.1797 67.7809 52.366 69.1573 53.1945C70.5336 54.0229 72.109 54.4623 73.7154 54.4659C80.8151 54.4659 84.921 45.8037 84.921 35.1222C84.921 30.2838 84.1919 26.1342 82.7001 23.127C86.3961 21.6755 86.4163 22.6263 86.4163 26.9137V61.29C86.4163 65.5237 85.8316 66.4376 81.8567 66.4376V68H97.3598V66.4376C93.3849 66.4376 92.7364 65.5237 92.7364 61.29V49.7618H92.8675C93.6224 51.1799 94.7481 52.3665 96.1245 53.1949C97.5009 54.0234 99.0764 54.4626 100.683 54.4659C107.783 54.4659 111.885 45.8037 111.885 35.1222C111.889 25.0758 108.757 17.9761 102.181 17.9761ZM72.0891 51.3242C68.635 51.3242 65.769 46.8319 65.769 39.5373V27.6832C67.449 24.8171 69.8749 22.4718 72.5427 22.4718C76.3228 22.4718 78.0801 27.3572 78.0801 36.0832C78.0801 44.0162 76.5176 51.3242 72.0891 51.3242ZM99.0533 51.3242C95.6025 51.3242 92.7364 46.8319 92.7364 39.5373V27.6832C94.4164 24.8171 96.839 22.4718 99.5102 22.4718C103.287 22.4718 105.048 27.3572 105.048 36.0832C105.048 44.0162 103.488 51.3242 99.0533 51.3242Z" fill="black"/>
</svg>
