<svg xmlns="http://www.w3.org/2000/svg" viewBox="0 0 619.11 356.59"><g id="Layer_2" data-name="Layer 2"><g id="Layer_1-2" data-name="Layer 1"><polygon points="34.06 19.17 34.51 19.17 60 84.13 72.29 84.13 98 18.95 98.45 18.95 98 84.13 110.52 84.13 110.52 0 93.04 0 66.65 66.65 66.2 66.65 39.92 0 21.99 0 21.99 84.13 34.51 84.13 34.06 19.17"/><path d="M126.08,71.61c0,8.35,6.2,14.33,17.14,14.33,10,0,16.69-5.19,20.75-9.7h.57c1.24,5.64,4.85,9.47,11.27,9.47,7,0,11.28-4.74,13.09-11.84l-1.81-.79c-1.24,2.37-3.27,4.17-6,4.17-3.38,0-5.18-2.59-5.18-6.88V48.83c0-13.31-6.77-22-23.12-22-11.39,0-20.75,6.43-24.93,14.32L137,47.93c3.27-6.54,8.34-10.83,15.22-10.83,8.35,0,11.28,4.4,11.28,10.27v3.27C147.17,52.1,126.08,56.28,126.08,71.61Zm37.44-3a21.76,21.76,0,0,1-16.13,7.55c-6,0-8.45-3-8.45-6.31,0-7.56,11.61-11.05,24.58-12.18Z"/><path d="M208.4,58c0-12.07,5.64-20.87,13.42-20.87,4.51,0,7.11,3,7.11,9a22,22,0,0,1-1,6.54l11.62-1.47a26.3,26.3,0,0,0,1-7.55c0-10.61-5.75-16.81-14.32-16.81S211.9,32,208.4,39.36H208V28.65H196V84.13h12.4Z"/><polygon points="264.56 57.52 265.24 56.84 287.12 84.13 302.45 84.13 277.42 54.02 299.75 28.65 285.54 28.65 265.24 52.1 264.56 51.54 264.56 0 252.16 0 252.16 84.13 264.56 84.13 264.56 57.52"/><path d="M334,85.94c13.87,0,23.57-7.45,26.84-19.85L349,63.61c-1.58,8.23-7.33,12-14.77,12-9.7,0-16.7-6.54-17.37-17.82h42.4a22.49,22.49,0,0,0,.34-3.83c0-16.58-10.71-27.07-26.5-27.07-16.81,0-28.42,12.29-28.42,30.11C304.71,74.32,317.11,85.94,334,85.94ZM332.79,37c7.89,0,14.1,4.63,14.1,13.08H317.45C319.14,40.94,325.12,37,332.79,37Z"/><path d="M377.33,67.89c0,11.17,5.53,18,16.13,18,6.32,0,12.41-1.69,16.13-5.3l-3-9.48a12.34,12.34,0,0,1-9.25,4.18c-4.73,0-7.55-2.82-7.55-8.91V39h17.14V28.65H389.74V5.53H377.33V28.65h-13V39h13Z"/><rect x="418.72" y="2.93" width="12.41" height="17.59"/><rect x="418.72" y="28.65" width="12.41" height="55.49"/><path d="M460.78,57c0-10.26,5.87-19.85,15-19.85s11.84,5.76,11.84,14.78V84.13H500V49.4c0-13.31-7-22.56-19.85-22.56-8.91,0-15.56,5.41-19.4,12.63h-.45V28.65H448.38V84.13h12.4Z"/><path d="M542.31,104.21c-9.13,0-16.46-5.3-18.94-13.88l-10.83,5.53c3.5,11.28,14,18.72,29.21,18.72,18.61,0,30.11-11.39,30.11-31.24V28.65H560V39.7h-.56A22,22,0,0,0,539,26.84c-16.12,0-26.16,13-26.16,29.55,0,17,10.6,29,25.83,29A22.48,22.48,0,0,0,559,73.76h.45v9.7C559.46,97.21,552.24,104.21,542.31,104.21Zm.23-29.1c-10.38,0-16.8-7.89-16.8-19,0-10.82,6.42-18.83,16.8-18.83,9.81,0,16.92,7.67,16.92,19C559.46,67.22,552.58,75.11,542.54,75.11Z"/><path d="M126,195.78c0-13.65-10.94-20.53-24.36-24.14l-10.83-2.93c-9-2.48-14-6.09-14-13C76.8,149.2,82.1,145,90,145c10.6,0,17.59,5.52,21.08,15.22l10.49-7.33c-3.61-10.15-14.43-19.4-30.33-19.4s-27.18,10-27.18,23.23c0,11.85,7,20.08,21.2,23.8l11.61,3c9.48,2.48,15.68,5.86,15.68,13.53,0,7.89-7.22,12.52-17.82,12.52-13.19,0-23.57-7.45-26.5-21l-10.6,7.56c3.72,14.88,17,25,36.65,25C113.11,221.26,126,211.11,126,195.78Z"/><path d="M194.65,191.72c0-17.37-12.18-29.55-29.55-29.55s-29.55,12.18-29.55,29.55,12.18,29.54,29.55,29.54S194.65,209.08,194.65,191.72ZM165.1,210.89c-10.6,0-17-8.24-17-19.17s6.43-19.18,17-19.18,17,8.24,17,19.18S175.7,210.89,165.1,210.89Z"/><rect x="207.95" y="135.33" width="12.41" height="84.13"/><path d="M256.89,221.26c9.48,0,15.57-5.75,18.84-12.63h.56v10.83h11.84V164h-12.4v27.52c0,9.59-5.3,19.51-14.67,19.51-8.57,0-11.61-5.64-11.61-14.77V164H237v35.41C237,212.69,244,221.26,256.89,221.26Z"/><path d="M339.89,206.49a12.32,12.32,0,0,1-9.24,4.17c-4.74,0-7.56-2.82-7.56-8.91v-27.4h17.14V164H323.09V140.85H310.68V164h-13v10.38h13v28.87c0,11.16,5.53,18,16.13,18,6.32,0,12.41-1.69,16.13-5.3Z"/><rect x="352.07" y="163.97" width="12.41" height="55.49"/><rect x="352.07" y="138.26" width="12.41" height="17.59"/><path d="M407.44,162.17c-17.37,0-29.55,12.18-29.55,29.55s12.18,29.54,29.55,29.54S437,209.08,437,191.72,424.81,162.17,407.44,162.17Zm0,48.72c-10.6,0-17-8.24-17-19.17s6.43-19.18,17-19.18,17,8.24,17,19.18S418,210.89,407.44,210.89Z"/><path d="M489.54,187.2v32.26h12.4V184.72c0-13.3-7-22.55-19.85-22.55-8.91,0-15.56,5.41-19.4,12.63h-.45V164H450.29v55.49h12.4V192.28c0-10.26,5.87-19.85,15-19.85S489.54,178.18,489.54,187.2Z"/><path d="M541.18,211.11c-8.12,0-16.35-4.06-19.73-11.16l-8.35,8.34c4.17,6.88,14.78,13,27.29,13,12.86,0,24.25-4.85,24.25-17.36,0-9.25-7.33-14.33-16.92-16.58l-9.36-2.26c-4.62-1.13-8.57-3-8.57-7,0-3.38,3.27-5.75,8.8-5.75s10.83,2.59,14.43,8.34l8.13-7.89c-3.84-5.64-12-10.6-22.11-10.6-10.71,0-21,5.75-21,16.58,0,9.47,7.33,14.32,15.12,16.12l10.71,2.6c5.75,1.46,8.91,3.38,8.91,7.21C552.8,209.31,547.5,211.11,541.18,211.11Z"/><path d="M44,307,33.16,304c-9-2.48-14-6.09-14-13,0-6.54,5.3-10.71,13.2-10.71,10.6,0,17.59,5.53,21.09,15.23l10.48-7.33c-3.6-10.15-14.43-19.4-30.33-19.4s-27.18,10-27.18,23.23c0,11.84,7,20.07,21.2,23.8l11.62,3c9.47,2.48,15.67,5.87,15.67,13.53,0,7.9-7.21,12.52-17.82,12.52-13.19,0-23.57-7.44-26.5-21L0,331.55c3.72,14.89,17,25,36.65,25,18.84,0,31.69-10.15,31.69-25.49C68.34,317.46,57.4,310.58,44,307Z"/><rect x="81.76" y="273.58" width="12.41" height="17.59"/><rect x="81.76" y="299.3" width="12.41" height="55.49"/><path d="M143.22,297.49c-8.91,0-15.56,5.42-19.4,12.63h-.45V299.3h-12v55.48h12.4V327.6c0-10.26,5.87-19.84,15-19.84s11.84,5.75,11.84,14.77v32.25h12.41V320.05C163.07,306.74,156.08,297.49,143.22,297.49Z"/><path d="M205.69,346.21c-11.05,0-17.25-8.91-17.25-19.17,0-11.16,6.54-19.17,16.12-19.17,7.79,0,12.3,4.62,12.3,11.5a11.32,11.32,0,0,1-.23,2.6l12.18-1.36a16.25,16.25,0,0,0,.11-2.25c0-13.65-10.26-20.87-24-20.87-17.93,0-29,13.2-29,29.66,0,16.81,11.28,29.44,29.66,29.44,13.19,0,25.26-7,27.52-22.9l-11.84-2.14C220.47,341.25,214.38,346.21,205.69,346.21Z"/><path d="M270.08,346.21c-9.69,0-16.69-6.54-17.36-17.81h42.4a22.69,22.69,0,0,0,.34-3.84c0-16.58-10.71-27.07-26.5-27.07-16.81,0-28.42,12.3-28.42,30.11,0,17.37,12.4,29,29.32,29,13.87,0,23.57-7.44,26.84-19.85l-11.84-2.48C283.28,342.49,277.53,346.21,270.08,346.21Zm-1.46-38.57c7.89,0,14.1,4.63,14.1,13.09H253.28C255,311.59,261,307.64,268.62,307.64Z"/><path d="M392.56,295.69c0-16.47-11.28-26.84-28.42-26.84-17.6,0-29.55,11.5-29.55,27.06a31.32,31.32,0,0,0,.9,7.9l13.19,2.37a21.39,21.39,0,0,1-1.12-7.45c0-9.47,4.73-18.15,16.12-18.15,10.38,0,15.57,7.1,15.57,16.35,0,17.59-21.43,35.19-49.17,57.85h65.18V343.39H360C377.89,328.17,392.56,314.19,392.56,295.69Z"/><path d="M437.66,268.85c-22.78,0-31.91,20.41-31.91,43.87s9.13,43.87,31.91,43.87,31.92-20.41,31.92-43.87S460.44,268.85,437.66,268.85Zm0,76c-15.34,0-18.72-16.8-18.72-32.14s3.38-32.14,18.72-32.14,18.72,16.8,18.72,32.14S453,344.86,437.66,344.86Z"/><path d="M514.35,268.85c-22.79,0-31.92,20.41-31.92,43.87s9.13,43.87,31.92,43.87,31.91-20.41,31.91-43.87S537.13,268.85,514.35,268.85Zm0,76c-15.34,0-18.73-16.8-18.73-32.14s3.39-32.14,18.73-32.14,18.72,16.8,18.72,32.14S529.68,344.86,514.35,344.86Z"/><path d="M586.29,268.85c-17.36,0-28.87,12.63-28.87,28.76,0,15.45,11.73,27.06,26.51,27.06,9.24,0,17-3.61,21.65-11.84h.56v1.58c0,18.16-7.55,30.45-22.21,30.45a21.3,21.3,0,0,1-19.06-11.05L556,343.06c4.73,8.23,16.35,13.53,28.08,13.53,24,0,35.07-18.83,35.07-43.87C619.11,291.06,610.65,268.85,586.29,268.85Zm.34,44.66c-9.58,0-16-6.77-16-16.47s6.43-16.46,16-16.46,16,6.88,16,16.46S596.22,313.51,586.63,313.51Z"/></g></g></svg>